PathFileType	4	(X/Y/Z)	OpenSim_Sub07_EMGBaseline_Gyro.trc
DataRate	CameraRate	NumFrames	NumMarkers	Units	OrigDataRate	OrigDataStartFrame	OrigNumFrames
100	100	31	8	m	100	2561	6828
Frame#	Time	torso_imu_offset_imu	pelvis_imu_offset_imu	tibia_r_imu_offset_imu	femur_r_imu_offset_imu	tibia_l_imu_offset_imu	femur_l_imu_offset_imu	toes_r_imu_offset_imu	toes_l_imu_offset_imu
				X1	Y1	Z1	X2	Y2	Z2	X3	Y3	Z3	X4	Y4	Z4	X5	Y5	Z5	X6	Y6	Z6	X7	Y7	Z7	X8		Y8	Z8	

2561	25.60000000	0.11735000	0.13171300	0.07152200	0.15127600	0.27961800	0.23037000	1.20156800	1.85642200	3.98055900	0.62600600	0.18068000	0.22713400	0.28115300	0.04136900	0.39453500	0.10708200	-0.22283300	0.76776100	-1.29466800	4.59915600	-0.03975900	0.06133700	-0.02178900	0.00859100
2562	25.61000000	0.08821100	0.15047300	0.05800500	0.14924100	0.26519700	0.21440900	1.58646800	2.12068000	4.00907100	0.50991500	0.12080400	0.13122200	0.27885000	0.02917500	0.45722800	0.12748100	-0.21702300	0.69370000	-1.40424400	4.41331400	0.19496800	0.04652900	-0.06093600	0.02010900
2563	25.62000000	0.06275200	0.15272700	0.06010600	0.15698000	0.23503800	0.23127800	1.64950200	2.36045400	4.04633800	0.26936300	0.02543600	0.04712000	0.27775600	0.05890700	0.47704900	0.13564800	-0.19381000	0.66047500	-1.26051800	4.29198400	0.40192700	0.04624900	-0.04810000	0.04514200
2564	25.63000000	0.03233900	0.16127900	0.04289700	0.17219200	0.20333600	0.21145200	1.46506500	2.57343400	4.20369000	-0.04890900	-0.05841000	-0.07418500	0.25809700	0.07156700	0.48883500	0.11579400	-0.17317400	0.65616100	-1.08688700	4.11247900	0.50381200	0.01879600	-0.03429100	0.05499100
2565	25.64000000	0.01333800	0.15157100	0.04477600	0.19102300	0.14333200	0.19700800	1.11179700	2.63691100	4.42487000	-0.36264000	-0.09969800	-0.22621700	0.25628300	0.08492400	0.53499200	0.07424500	-0.16271600	0.65108000	-1.01855700	3.88784100	0.53627000	0.04095800	-0.03320400	0.06991400
2566	25.65000000	-0.01429400	0.14371700	0.04072400	0.21358200	0.09360100	0.17711200	0.36845100	2.64941500	4.54667000	-0.63100000	-0.07695200	-0.42516900	0.19342300	0.11678000	0.59951800	0.03141300	-0.16097400	0.60764700	-1.04942200	3.95814300	0.54981400	0.02411800	-0.00177000	0.06624900
2567	25.66000000	-0.04451800	0.13231100	0.04258400	0.22367400	0.05828200	0.15571400	-0.54924900	2.57923600	4.33043100	-0.85671900	-0.03560900	-0.64697600	0.16225500	0.13578600	0.63554000	-0.00158100	-0.16171400	0.54324800	-1.05986900	4.30828900	0.53481100	0.03422800	-0.06123000	0.08263900
2568	25.67000000	-0.07152300	0.11738300	0.04297900	0.21278900	0.03512500	0.13485900	-0.98600900	2.33184800	3.92286700	-1.12375100	-0.00096300	-0.86421600	0.13621800	0.13197400	0.64644300	-0.02670600	-0.16499700	0.52919700	-0.93424600	4.41998600	0.49883300	-0.00352700	-0.01534800	0.08744600
2569	25.68000000	-0.10306300	0.10668000	0.04639100	0.19564600	0.00948400	0.11597300	-1.01395000	2.00856600	3.66464100	-1.49737000	0.07219400	-1.08979200	0.11802100	0.13052600	0.69549100	-0.07004200	-0.16492400	0.54142800	-0.83236700	4.24209800	0.40264800	0.03974100	-0.05516200	0.09575300
2570	25.69000000	-0.12346300	0.08807200	0.04698200	0.17604200	-0.01250200	0.10484000	-1.06448000	1.77121700	3.54948700	-1.77704700	0.15996000	-1.34441200	0.05520000	0.14874700	0.76910700	-0.11853000	-0.16486300	0.55781800	-0.74425600	4.04772400	0.26206400	0.01920900	0.01142100	0.10720400
2571	25.70000000	-0.14595900	0.07390000	0.04153400	0.14845600	-0.01203600	0.09267900	-0.79013000	1.75202100	3.43129900	-1.62887600	0.20730800	-1.58018100	-0.00478300	0.17050200	0.79984900	-0.18711200	-0.17505700	0.53415000	-0.69251400	3.91405500	0.18476400	0.00763900	-0.06335100	0.14228100
2572	25.71000000	-0.15285900	0.05383200	0.02995600	0.12476300	-0.00385100	0.09339800	-0.32227000	1.77759500	3.39139300	-1.05093600	0.26542700	-1.72514100	0.06808900	0.16839900	0.75687000	-0.26761000	-0.18691000	0.54302400	-0.64680400	3.79070400	0.22565700	-0.03658400	-0.06983100	0.15429800
2573	25.72000000	-0.16455800	0.03101300	0.02336900	0.10804600	-0.02138900	0.08662700	0.00616300	1.69876500	3.35449500	-0.43376100	0.38571500	-1.66188100	0.02436200	0.17616900	0.76136400	-0.34295400	-0.20398400	0.56747700	-0.54692500	3.58327900	0.34798700	0.01523900	-0.11250000	0.13661000
2574	25.73000000	-0.17408200	0.01234400	0.01494200	0.07816300	-0.06138400	0.08527300	0.07822700	1.53258500	3.20321600	-0.00897300	0.50898700	-1.38166000	-0.03150300	0.19649900	0.83882100	-0.41469600	-0.20838900	0.57883000	-0.47487100	3.30397000	0.55340400	0.03497900	-0.08201600	0.11856800
2575	25.74000000	-0.16957900	-0.00764100	0.00923900	0.05135400	-0.10459200	0.09201800	0.05601100	1.28968200	2.94035200	0.17223300	0.52579600	-0.97078800	0.01912800	0.22898000	0.86668100	-0.50425600	-0.21335000	0.53164100	-0.49455400	2.97517200	0.81708700	0.08337800	-0.15607400	0.11292800
2576	25.75000000	-0.16064100	-0.02460300	0.01087400	0.01906900	-0.13322300	0.10132100	-0.01526900	0.92284500	2.63801300	0.15233000	0.40947500	-0.57963500	0.01952500	0.23928200	0.87898500	-0.55020800	-0.21251000	0.53668800	-0.57611800	2.66781200	1.05701500	0.07893700	-0.21335500	0.09835600
2577	25.76000000	-0.14183500	-0.04390000	0.00865500	-0.00373700	-0.16506800	0.11168900	-0.05263900	0.55557900	2.27585800	0.07767600	0.25822300	-0.34081800	0.07826300	0.27213300	0.90093900	-0.57110300	-0.19827200	0.54858300	-0.63473700	2.39841900	1.22506400	0.11010500	-0.25954900	0.07711500
2578	25.77000000	-0.12102400	-0.06142900	0.01215800	-0.03337700	-0.18231200	0.11907500	-0.06355500	0.27726300	1.84330600	0.09934500	0.03351700	-0.25769800	0.11667900	0.31621100	0.96223300	-0.56101100	-0.17883800	0.53918800	-0.64870700	2.13932700	1.35821300	0.17616100	-0.29605400	0.05000100
2579	25.78000000	-0.10446600	-0.07961900	0.00079500	-0.06057500	-0.17635700	0.13292900	0.03858200	0.10020400	1.36638300	0.23294300	-0.26934100	-0.25443900	0.12434200	0.34598100	1.01117000	-0.52135400	-0.14474800	0.51997200	-0.63680100	1.87389100	1.47846500	0.24745600	-0.32620500	0.04299000
2580	25.79000000	-0.07771300	-0.10831300	-0.00009600	-0.06469500	-0.15751800	0.15321600	0.22078500	-0.03680800	0.83175300	0.31478100	-0.60501600	-0.25043300	0.13027400	0.35737700	1.04043100	-0.49287500	-0.11632600	0.50791200	-0.56795700	1.56374300	1.57426000	0.21810900	-0.47701900	0.06999400
2581	25.80000000	-0.05969500	-0.13868500	-0.00192200	-0.05297800	-0.14377200	0.16033800	0.36723800	-0.19272200	0.26278600	0.19205400	-0.76129800	-0.18052900	0.12668600	0.35758600	1.04812800	-0.48304800	-0.10278700	0.49546100	-0.44127400	1.09821800	1.61079500	0.22031500	-0.59890200	0.07348700
2582	25.81000000	-0.05065900	-0.14210900	-0.01077400	-0.00322800	-0.14743700	0.15924800	0.46977500	-0.33946500	-0.23160300	-0.10899300	-0.69382000	-0.06849100	0.16549600	0.39974600	1.13771700	-0.47288600	-0.07830100	0.43004300	-0.20456600	0.48127600	1.54252200	0.30009300	-0.67315600	0.06949900
2583	25.82000000	-0.03124300	-0.14378500	-0.02201400	0.06364100	-0.15915600	0.14080900	0.65714300	-0.42375500	-0.59597700	-0.53458000	-0.54599800	0.07900000	0.16061900	0.45545000	1.23545200	-0.38169100	-0.04894000	0.37609100	0.18358500	-0.28745000	1.39127400	0.32430000	-0.73301900	0.04356600
2584	25.83000000	-0.03060700	-0.15803100	-0.02812100	0.15550400	-0.16619900	0.12105400	1.04173000	-0.54341600	-0.86355100	-0.86864900	-0.45634600	0.24741000	0.15038100	0.49634100	1.30012400	-0.28382700	-0.02424100	0.31872800	1.59906900	-1.91028000	1.04556200	0.33015400	-0.94378200	0.04397600
2585	25.84000000	-0.03392600	-0.18600000	-0.03214900	0.23464600	-0.17940000	0.12170300	1.43736300	-0.79866000	-1.06158300	-0.88025400	-0.45478500	0.32798800	0.19304500	0.48974700	1.34228300	-0.22541800	0.00070400	0.23765500	1.95431400	-2.32484100	0.52542200	0.41428900	-1.09373700	0.06422200
2586	25.85000000	-0.05654800	-0.19995800	-0.03782700	0.30798400	-0.20392700	0.13222900	1.44619200	-0.92917700	-1.22333900	-0.55068900	-0.56626500	0.27133600	0.13940800	0.49928700	1.45659100	-0.14086200	0.05927600	0.13364400	1.38674100	-2.56963400	0.17579100	0.39065100	-1.24278800	0.09396300
2587	25.86000000	-0.08378300	-0.20840000	-0.03801900	0.36750000	-0.22233900	0.15378000	1.30035200	-0.92277600	-1.08435700	-0.13164500	-0.73262600	0.15836400	0.16408100	0.51847200	1.56157700	0.03239100	0.13272000	0.01488800	1.08236200	-2.23094300	0.08992400	0.35334900	-1.42908400	0.13730900
2588	25.87000000	-0.09559300	-0.22015100	-0.03957700	0.37369600	-0.22660400	0.17917000	0.44440600	-0.85130300	-0.64561700	0.31457600	-0.87858400	-0.07201800	0.16803100	0.53214500	1.63854100	0.19510200	0.22057500	-0.12087000	0.76147700	-2.21717400	0.27497300	0.41015000	-1.64510200	0.17061400
2589	25.88000000	-0.13370900	-0.23340300	-0.02823000	0.35194800	-0.22916500	0.18858000	0.59210800	-0.59880200	-0.43170600	0.67398000	-0.81393400	-0.39327000	0.22493200	0.48520400	1.74017500	0.34929600	0.32127800	-0.25476300	0.12879100	-2.50647900	0.66176600	0.33260000	-1.97258100	0.22849800
2590	25.89000000	-0.17452800	-0.24618500	-0.02438500	0.32416400	-0.20376100	0.19803100	1.29024100	-0.45945200	-0.61975500	0.85810400	-0.59818300	-0.60059300	0.26579900	0.43949100	1.85218500	0.48642100	0.43612000	-0.38324400	-0.19099900	-2.55312900	0.61258800	0.29169800	-2.18678800	0.29000300
2591	25.90000000	-0.20371200	-0.25783300	-0.02464000	0.26875700	-0.16565100	0.18289700	1.03918300	-0.54615900	-0.93118300	0.84451500	-0.30696200	-0.64470600	0.28274700	0.36627100	2.00295400	0.53438100	0.54239400	-0.50785900	-0.13497000	-2.29579100	0.10328700	0.34182500	-2.40915900	0.35201700
